<svg aria-hidden="true" style="position: absolute; width: 0; height: 0; overflow: hidden;" version="1.1" xmlns="http://www.w3.org/2000/svg" xmlns:xlink="http://www.w3.org/1999/xlink">
<defs>
<symbol id="ic-calendar" viewBox="0 0 24 24">
<title>calendar</title>
<path d="M7 2v1h-2c-0.828 0-1.58 0.337-2.121 0.879s-0.879 1.293-0.879 2.121v14c0 0.828 0.337 1.58 0.879 2.121s1.293 0.879 2.121 0.879h14c0.828 0 1.58-0.337 2.121-0.879s0.879-1.293 0.879-2.121v-14c0-0.828-0.337-1.58-0.879-2.121s-1.293-0.879-2.121-0.879h-2v-1c0-0.552-0.448-1-1-1s-1 0.448-1 1v1h-6v-1c0-0.552-0.448-1-1-1s-1 0.448-1 1zM20 9h-16v-3c0-0.276 0.111-0.525 0.293-0.707s0.431-0.293 0.707-0.293h2v1c0 0.552 0.448 1 1 1s1-0.448 1-1v-1h6v1c0 0.552 0.448 1 1 1s1-0.448 1-1v-1h2c0.276 0 0.525 0.111 0.707 0.293s0.293 0.431 0.293 0.707zM4 11h16v9c0 0.276-0.111 0.525-0.293 0.707s-0.431 0.293-0.707 0.293h-14c-0.276 0-0.525-0.111-0.707-0.293s-0.293-0.431-0.293-0.707z"></path>
</symbol>
<symbol id="ic-flag" viewBox="0 0 24 24">
<title>flag</title>
<path d="M5 13.397v-9.859c0.44-0.218 1.365-0.538 3-0.538 1.281 0 2.361 0.421 3.629 0.928 1.232 0.493 2.652 1.072 4.371 1.072 1.298 0 2.278-0.175 3-0.397v9.859c-0.44 0.218-1.365 0.538-3 0.538-1.281 0-2.361-0.421-3.629-0.928-1.232-0.493-2.652-1.072-4.371-1.072-1.298 0-2.278 0.175-3 0.397zM5 22v-6.462c0.44-0.218 1.365-0.538 3-0.538 1.281 0 2.361 0.421 3.629 0.928 1.232 0.493 2.652 1.072 4.371 1.072 3.247 0 4.507-1.093 4.707-1.293 0.195-0.195 0.293-0.451 0.293-0.707v-12c0-0.552-0.448-1-1-1-0.265 0-0.506 0.103-0.685 0.272-0.096 0.078-0.984 0.728-3.315 0.728-1.281 0-2.361-0.421-3.629-0.928-1.232-0.493-2.652-1.072-4.371-1.072-3.247 0-4.507 1.093-4.707 1.293-0.195 0.195-0.293 0.451-0.293 0.707v19c0 0.552 0.448 1 1 1s1-0.448 1-1z"></path>
</symbol>
<symbol id="ic-lock" viewBox="0 0 24 24">
<title>lock</title>
<path d="M5 12h14c0.276 0 0.525 0.111 0.707 0.293s0.293 0.431 0.293 0.707v7c0 0.276-0.111 0.525-0.293 0.707s-0.431 0.293-0.707 0.293h-14c-0.276 0-0.525-0.111-0.707-0.293s-0.293-0.431-0.293-0.707v-7c0-0.276 0.111-0.525 0.293-0.707s0.431-0.293 0.707-0.293zM18 10v-3c0-1.657-0.673-3.158-1.757-4.243s-2.586-1.757-4.243-1.757-3.158 0.673-4.243 1.757-1.757 2.586-1.757 4.243v3h-1c-0.828 0-1.58 0.337-2.121 0.879s-0.879 1.293-0.879 2.121v7c0 0.828 0.337 1.58 0.879 2.121s1.293 0.879 2.121 0.879h14c0.828 0 1.58-0.337 2.121-0.879s0.879-1.293 0.879-2.121v-7c0-0.828-0.337-1.58-0.879-2.121s-1.293-0.879-2.121-0.879zM8 10v-3c0-1.105 0.447-2.103 1.172-2.828s1.723-1.172 2.828-1.172 2.103 0.447 2.828 1.172 1.172 1.723 1.172 2.828v3z"></path>
</symbol>
<symbol id="ic-mail" viewBox="0 0 24 24">
<title>mail</title>
<path d="M3 7.921l8.427 5.899c0.34 0.235 0.795 0.246 1.147 0l8.426-5.899v10.079c0 0.272-0.11 0.521-0.295 0.705s-0.433 0.295-0.705 0.295h-16c-0.272 0-0.521-0.11-0.705-0.295s-0.295-0.433-0.295-0.705zM1 5.983c0 0.010 0 0.020 0 0.030v11.987c0 0.828 0.34 1.579 0.88 2.12s1.292 0.88 2.12 0.88h16c0.828 0 1.579-0.34 2.12-0.88s0.88-1.292 0.88-2.12v-11.988c0-0.010 0-0.020 0-0.030-0.005-0.821-0.343-1.565-0.88-2.102-0.541-0.54-1.292-0.88-2.12-0.88h-16c-0.828 0-1.579 0.34-2.12 0.88-0.537 0.537-0.875 1.281-0.88 2.103zM20.894 5.554l-8.894 6.225-8.894-6.225c0.048-0.096 0.112-0.183 0.188-0.259 0.185-0.185 0.434-0.295 0.706-0.295h16c0.272 0 0.521 0.11 0.705 0.295 0.076 0.076 0.14 0.164 0.188 0.259z"></path>
</symbol>
<symbol id="ic-star" viewBox="0 0 24 24">
<title>star</title>
<path d="M12.897 1.557c-0.092-0.189-0.248-0.352-0.454-0.454-0.495-0.244-1.095-0.041-1.339 0.454l-2.858 5.789-6.391 0.935c-0.208 0.029-0.411 0.127-0.571 0.291-0.386 0.396-0.377 1.029 0.018 1.414l4.623 4.503-1.091 6.362c-0.036 0.207-0.006 0.431 0.101 0.634 0.257 0.489 0.862 0.677 1.351 0.42l5.714-3.005 5.715 3.005c0.186 0.099 0.408 0.139 0.634 0.101 0.544-0.093 0.91-0.61 0.817-1.155l-1.091-6.362 4.623-4.503c0.151-0.146 0.259-0.344 0.292-0.572 0.080-0.546-0.298-1.054-0.845-1.134l-6.39-0.934zM12 4.259l2.193 4.444c0.151 0.305 0.436 0.499 0.752 0.547l4.906 0.717-3.549 3.457c-0.244 0.238-0.341 0.569-0.288 0.885l0.837 4.883-4.386-2.307c-0.301-0.158-0.647-0.148-0.931 0l-4.386 2.307 0.837-4.883c0.058-0.336-0.059-0.661-0.288-0.885l-3.549-3.457 4.907-0.718c0.336-0.049 0.609-0.26 0.752-0.546z"></path>
</symbol>
<symbol id="ic-trending-up" viewBox="0 0 24 24">
<title>trending-up</title>
<path d="M17 7h3.586l-7.086 7.086-4.293-4.293c-0.391-0.391-1.024-0.391-1.414 0l-7.5 7.5c-0.391 0.391-0.391 1.024 0 1.414s1.024 0.391 1.414 0l6.793-6.793 4.293 4.293c0.391 0.391 1.024 0.391 1.414 0l7.793-7.793v3.586c0 0.552 0.448 1 1 1s1-0.448 1-1v-6c0-0.136-0.027-0.265-0.076-0.383s-0.121-0.228-0.216-0.323c-0.001-0.001-0.001-0.001-0.002-0.002-0.092-0.092-0.202-0.166-0.323-0.216-0.118-0.049-0.247-0.076-0.383-0.076h-6c-0.552 0-1 0.448-1 1s0.448 1 1 1z"></path>
</symbol>
<symbol id="ic-user" viewBox="0 0 24 24">
<title>user</title>
<path d="M21 21v-2c0-1.38-0.561-2.632-1.464-3.536s-2.156-1.464-3.536-1.464h-8c-1.38 0-2.632 0.561-3.536 1.464s-1.464 2.156-1.464 3.536v2c0 0.552 0.448 1 1 1s1-0.448 1-1v-2c0-0.829 0.335-1.577 0.879-2.121s1.292-0.879 2.121-0.879h8c0.829 0 1.577 0.335 2.121 0.879s0.879 1.292 0.879 2.121v2c0 0.552 0.448 1 1 1s1-0.448 1-1zM17 7c0-1.38-0.561-2.632-1.464-3.536s-2.156-1.464-3.536-1.464-2.632 0.561-3.536 1.464-1.464 2.156-1.464 3.536 0.561 2.632 1.464 3.536 2.156 1.464 3.536 1.464 2.632-0.561 3.536-1.464 1.464-2.156 1.464-3.536zM15 7c0 0.829-0.335 1.577-0.879 2.121s-1.292 0.879-2.121 0.879-1.577-0.335-2.121-0.879-0.879-1.292-0.879-2.121 0.335-1.577 0.879-2.121 1.292-0.879 2.121-0.879 1.577 0.335 2.121 0.879 0.879 1.292 0.879 2.121z"></path>
</symbol>
<symbol id="ic-calendar-1" viewBox="0 0 24 24">
<title>calendar-1</title>
<path d="M7 2v1h-2c-0.828 0-1.58 0.337-2.121 0.879s-0.879 1.293-0.879 2.121v14c0 0.828 0.337 1.58 0.879 2.121s1.293 0.879 2.121 0.879h14c0.828 0 1.58-0.337 2.121-0.879s0.879-1.293 0.879-2.121v-14c0-0.828-0.337-1.58-0.879-2.121s-1.293-0.879-2.121-0.879h-2v-1c0-0.552-0.448-1-1-1s-1 0.448-1 1v1h-6v-1c0-0.552-0.448-1-1-1s-1 0.448-1 1zM20 9h-16v-3c0-0.276 0.111-0.525 0.293-0.707s0.431-0.293 0.707-0.293h2v1c0 0.552 0.448 1 1 1s1-0.448 1-1v-1h6v1c0 0.552 0.448 1 1 1s1-0.448 1-1v-1h2c0.276 0 0.525 0.111 0.707 0.293s0.293 0.431 0.293 0.707zM4 11h16v9c0 0.276-0.111 0.525-0.293 0.707s-0.431 0.293-0.707 0.293h-14c-0.276 0-0.525-0.111-0.707-0.293s-0.293-0.431-0.293-0.707z"></path>
</symbol>
<symbol id="ic-clock" viewBox="0 0 24 24">
<title>clock</title>
<path d="M23 12c0-3.037-1.232-5.789-3.222-7.778s-4.741-3.222-7.778-3.222-5.789 1.232-7.778 3.222-3.222 4.741-3.222 7.778 1.232 5.789 3.222 7.778 4.741 3.222 7.778 3.222 5.789-1.232 7.778-3.222 3.222-4.741 3.222-7.778zM21 12c0 2.486-1.006 4.734-2.636 6.364s-3.878 2.636-6.364 2.636-4.734-1.006-6.364-2.636-2.636-3.878-2.636-6.364 1.006-4.734 2.636-6.364 3.878-2.636 6.364-2.636 4.734 1.006 6.364 2.636 2.636 3.878 2.636 6.364zM11 6v6c0 0.389 0.222 0.727 0.553 0.894l4 2c0.494 0.247 1.095 0.047 1.342-0.447s0.047-1.095-0.447-1.342l-3.448-1.723v-5.382c0-0.552-0.448-1-1-1s-1 0.448-1 1z"></path>
</symbol>
<symbol id="ic-pin" viewBox="0 0 24 24">
<title>pin</title>
<path d="M22 10c0-2.761-1.12-5.263-2.929-7.071s-4.31-2.929-7.071-2.929-5.263 1.12-7.071 2.929-2.929 4.31-2.929 7.071c0 0.569 0.053 1.128 0.15 1.676 0.274 1.548 0.899 3.004 1.682 4.32 2.732 4.591 7.613 7.836 7.613 7.836 0.331 0.217 0.765 0.229 1.109 0 0 0 4.882-3.245 7.613-7.836 0.783-1.316 1.408-2.772 1.682-4.32 0.098-0.548 0.151-1.107 0.151-1.676zM20 10c0 0.444-0.041 0.887-0.119 1.328-0.221 1.25-0.737 2.478-1.432 3.646-1.912 3.214-5.036 5.747-6.369 6.74-1.398-0.916-4.588-3.477-6.53-6.74-0.695-1.168-1.211-2.396-1.432-3.646-0.077-0.441-0.118-0.884-0.118-1.328 0-2.209 0.894-4.208 2.343-5.657s3.448-2.343 5.657-2.343 4.208 0.894 5.657 2.343 2.343 3.448 2.343 5.657zM16 10c0-1.104-0.449-2.106-1.172-2.828s-1.724-1.172-2.828-1.172-2.106 0.449-2.828 1.172-1.172 1.724-1.172 2.828 0.449 2.106 1.172 2.828 1.724 1.172 2.828 1.172 2.106-0.449 2.828-1.172 1.172-1.724 1.172-2.828zM14 10c0 0.553-0.223 1.051-0.586 1.414s-0.861 0.586-1.414 0.586-1.051-0.223-1.414-0.586-0.586-0.861-0.586-1.414 0.223-1.051 0.586-1.414 0.861-0.586 1.414-0.586 1.051 0.223 1.414 0.586 0.586 0.861 0.586 1.414z"></path>
</symbol>
<symbol id="ic-globe" viewBox="0 0 32 32">
<title>globe</title>
<path d="M15.5 0c-8.561 0-15.5 6.939-15.5 15.5s6.939 15.5 15.5 15.5 15.5-6.939 15.5-15.5-6.939-15.5-15.5-15.5zM28.975 15h-5.996c-0.055-2.215-0.449-4.331-1.148-6.268 1.35-0.563 2.598-1.312 3.736-2.197 2.023 2.271 3.288 5.22 3.408 8.465zM14.947 28.972c-1.662-1.384-3.056-3.181-4.076-5.268 1.309-0.409 2.696-0.633 4.129-0.679v5.949c-0.018 0-0.035-0.001-0.053-0.002zM16.051 2.028c1.886 1.57 3.425 3.673 4.466 6.126-1.426 0.487-2.941 0.77-4.518 0.82v-6.949c0.019 0.001 0.035 0.002 0.052 0.003zM17.717 2.198c2.76 0.459 5.236 1.748 7.164 3.614-1.047 0.803-2.191 1.483-3.428 1.998-0.91-2.157-2.187-4.064-3.736-5.612zM15 2.025v6.949c-1.577-0.051-3.093-0.333-4.518-0.82 1.041-2.453 2.58-4.556 4.466-6.126 0.018-0.001 0.034-0.002 0.052-0.003zM9.546 7.811c-1.235-0.515-2.38-1.195-3.427-1.998 1.927-1.866 4.404-3.155 7.164-3.614-1.55 1.547-2.826 3.454-3.737 5.612zM10.105 9.076c1.542 0.535 3.185 0.847 4.895 0.899v5.025h-5.979c0.054-2.094 0.425-4.095 1.084-5.924zM15 16v6.025c-1.577 0.048-3.102 0.306-4.539 0.769-0.866-2.062-1.377-4.359-1.44-6.794h5.979zM13.283 28.802c-2.473-0.411-4.719-1.488-6.545-3.052 0.985-0.683 2.050-1.261 3.188-1.7 0.872 1.808 2.013 3.413 3.357 4.752zM16 28.975v-5.949c1.432 0.046 2.82 0.27 4.129 0.679-1.021 2.087-2.414 3.884-4.076 5.268-0.017 0-0.035 0.001-0.053 0.002zM21.074 24.050c1.137 0.439 2.201 1.018 3.188 1.7-1.826 1.563-4.072 2.641-6.545 3.052 1.344-1.339 2.484-2.944 3.357-4.752zM20.539 22.794c-1.438-0.463-2.963-0.721-4.539-0.769v-6.025h5.979c-0.063 2.435-0.575 4.732-1.44 6.794zM16 15v-5.025c1.709-0.052 3.352-0.363 4.895-0.898 0.658 1.829 1.029 3.83 1.084 5.924h-5.979zM5.434 6.535c1.138 0.885 2.386 1.634 3.735 2.197-0.699 1.937-1.093 4.053-1.148 6.268h-5.996c0.12-3.245 1.385-6.194 3.409-8.465zM2.025 16h5.996c0.062 2.555 0.596 4.968 1.503 7.137-1.267 0.494-2.448 1.152-3.538 1.931-2.348-2.337-3.83-5.532-3.961-9.068zM25.014 25.067c-1.090-0.778-2.271-1.437-3.539-1.931 0.908-2.169 1.441-4.582 1.504-7.137h5.996c-0.131 3.537-1.614 6.732-3.961 9.068z"></path>
</symbol>
<symbol id="ic-email-2" viewBox="0 0 32 32">
<title>email-2</title>
<path d="M16.056 31.531c-10.417 0-16.056-6.501-16.056-14.895 0-8.969 6.349-16.167 17.701-16.167 8.285 0 14.299 5.384 14.299 12.801 0 11.616-13.773 14.683-13.083 8.056-0.947 1.477-2.472 3.139-5.404 3.139-3.355 0-5.44-2.456-5.44-6.409 0-5.925 3.895-10.932 8.505-10.932 2.212 0 3.733 1.168 4.369 2.961l0.619-2.176h3.117c-0.325 1.109-3.095 11.369-3.095 11.369-0.864 3.555 1.8 3.617 4.163 1.729 4.439-3.44 4.668-12.436-1.331-16.188-6.428-3.855-21.060-1.469-21.060 11.591 0 7.481 5.267 12.508 13.105 12.508 4.581 0 7.389-1.24 9.727-2.597l1.569 2.264c-2.281 1.288-5.948 2.945-11.707 2.945zM12.931 12.457c-0.953 1.787-1.569 4.101-1.569 5.899 0 4.813 4.696 4.844 7.003 0.319 0.949-1.859 1.561-4.228 1.561-6.039 0-3.889-4.66-4.579-6.995-0.179z"></path>
</symbol>
<symbol id="ic-flag-1" viewBox="0 0 32 32">
<title>flag-1</title>
<path d="M5.333 32h-2.667v-32h2.667v32zM29.333 3.484s-2.161 1.907-5.005 1.907c-4.48 0-4.581-3.86-9.783-3.86-2.811 0-5.433 1.307-6.545 2.259v16.113c1.579-1.092 3.972-2.241 6.564-2.241 4.912 0 5.601 3.672 9.979 3.672 2.829 0 4.791-1.812 4.791-1.812v-16.037z"></path>
</symbol>
<symbol id="ic-guide" viewBox="0 0 32 32">
<title>guide</title>
<path d="M5.131 25.333h-1.131c-1.061 0-2.079-0.421-2.828-1.172-0.751-0.749-1.172-1.767-1.172-2.828v-4c0-9.567 7.169-17.333 16-17.333s16 7.767 16 17.333v4c0 1.061-0.421 2.079-1.172 2.828-0.749 0.751-1.767 1.172-2.828 1.172h-1.131c-3.587 6.177-9.205 6.667-10.869 6.667s-7.283-0.489-10.869-6.667zM26.667 17.499c-0.801 0.315-1.692-0.24-1.692-1.063 0-0.405-0.029-0.813-0.071-1.22-2.348-0.339-4.824-2.568-4.932-4.964-1.753 2.673-6.033 5.56-9.392 5.56 1.448-0.932 2.452-3.697 2.537-4.677-0.775 1.456-3.864 4.181-6.068 4.649l-0.024 0.652c0 0.825-0.892 1.376-1.692 1.063v5.028c0.383 0.341 0.843 0.619 1.388 0.792 0.3 0.096 0.549 0.299 0.695 0.565 2.941 5.395 7.235 5.449 8.584 5.449 1.239 0 4.959-0.047 7.836-4.225-1.428 0.577-3.020 0.805-5.012 0.871-0.493 0.8-1.573 1.355-2.824 1.355-1.717 0-3.111-1.045-3.111-2.333s1.393-2.333 3.111-2.333c1.244 0 2.317 0.548 2.816 1.34 2.533-0.035 5.781-0.445 7.851-3.527v-2.981zM12 16.667c0.915 0 1.657 0.896 1.657 2s-0.743 2-1.657 2-1.657-0.896-1.657-2 0.743-2 1.657-2zM20 16.667c0.915 0 1.657 0.896 1.657 2s-0.743 2-1.657 2-1.657-0.896-1.657-2 0.743-2 1.657-2zM27.304 14.667h1.809c-1.141-6.824-6.583-12-13.113-12s-11.972 5.176-13.113 12h1.809c0.693-5.364 4.548-10.296 11.304-10.296s10.611 4.932 11.304 10.296z"></path>
</symbol>
<symbol id="ic-lock1" viewBox="0 0 32 32">
<title>lock1</title>
<path d="M24 13.333v-5.333c0-4.417-3.583-8-8-8s-8 3.583-8 8v5.333h-4v18.667h24v-18.667h-4zM10.667 13.333v-5.333c0-2.941 2.392-5.333 5.333-5.333s5.333 2.392 5.333 5.333v5.333h-10.667z"></path>
</symbol>
<symbol id="ic-magnifier" viewBox="0 0 32 32">
<title>magnifier</title>
<path d="M30.815 26.744l-6.636-6.636c1.287-2.027 2.031-4.429 2.031-7.001 0-7.227-5.879-13.107-13.105-13.107s-13.104 5.88-13.104 13.107 5.877 13.107 13.105 13.107c2.445 0 4.736-0.673 6.696-1.844l6.695 6.695c2.859 2.855 7.179-1.461 4.319-4.32zM4.063 13.107c0-4.985 4.057-9.043 9.043-9.043s9.043 4.056 9.043 9.043-4.057 9.043-9.043 9.043-9.043-4.057-9.043-9.043zM6.743 10.755c2.645-6.132 11.552-5.421 13.229 0.999-3.379-3.965-9.324-4.392-13.229-0.999z"></path>
</symbol>
<symbol id="ic-map" viewBox="0 0 32 32">
<title>map</title>
<path d="M16 0c-4.197 0-8 3.404-8 7.603 0 6.243 6.377 6.903 8 16.397 1.623-9.495 8-10.155 8-16.397 0-4.199-3.801-7.603-8-7.603zM16 10.667c-1.473 0-2.667-1.193-2.667-2.667s1.193-2.667 2.667-2.667 2.667 1.193 2.667 2.667-1.193 2.667-2.667 2.667zM32 32l-8.943-3.236-7.057 3.236-7.441-3.236-8.559 3.236 5.333-12 5.28-2.112c0.507 0.688 0.988 1.44 1.415 2.305l-4.697 1.88-2.3 5.173 3.563-1.347 2.008-3.583-0.847 4.059 5.585 2.385 0.66-2.695 0.62 2.699 5.533-2.52-0.824-4.044 2.096 3.861 3.643 1.319-2.319-5.304-4.775-1.887c0.425-0.867 0.908-1.62 1.416-2.308l5.361 2.117 5.248 12z"></path>
</symbol>
<symbol id="ic-menu" viewBox="0 0 32 32">
<title>menu</title>
<path d="M5.333 29.333h-5.333v-5.333h5.333v5.333zM5.333 13.333h-5.333v5.333h5.333v-5.333zM5.333 2.667h-5.333v5.333h5.333v-5.333zM9.333 2.667v5.333h22.667v-5.333h-22.667zM9.333 18.667h22.667v-5.333h-22.667v5.333zM9.333 29.333h22.667v-5.333h-22.667v5.333z"></path>
</symbol>
<symbol id="ic-phone" viewBox="0 0 32 32">
<title>phone</title>
<path d="M24.64 30.568l-1.591 0.877c-9.305 4.828-25.443-23.325-16.372-28.645l1.527-0.849 4.952 8.623-1.519 0.843c-2.756 1.66 3.68 12.943 6.505 11.393l1.549-0.856 4.948 8.615zM11.563 0l-2.24 1.3 4.952 8.621 2.241-1.3-4.953-8.621zM23.047 19.996l-2.24 1.3 4.952 8.623 2.241-1.3-4.953-8.623z"></path>
</symbol>
<symbol id="ic-user-1" viewBox="0 0 32 32">
<title>user-1</title>
<path d="M16 2.667c3.676 0 6.667 2.991 6.667 6.668 0 3.675-2.991 6.667-6.667 6.667s-6.667-2.992-6.667-6.667c0-3.677 2.991-6.668 6.667-6.668zM16 0c-5.155 0-9.333 4.179-9.333 9.335 0 5.153 4.179 9.333 9.333 9.333s9.333-4.18 9.333-9.333c0-5.156-4.179-9.335-9.333-9.335zM24.492 17.804c-0.663 0.664-1.409 1.241-2.211 1.736 3.829 2.499 5.837 6.777 6.629 9.795h-25.849c0.763-3.053 2.744-7.337 6.631-9.811-0.804-0.499-1.549-1.081-2.211-1.749-5.677 4.096-7.481 11.341-7.481 14.225h32c0-2.856-1.92-10.076-7.508-14.196z"></path>
</symbol>
<symbol id="ic-wrench" viewBox="0 0 32 32">
<title>wrench</title>
<path d="M18.527 14.164l1.827-2.739c0.467-0.7 1.413-0.889 2.113-0.423 0.699 0.467 0.889 1.413 0.421 2.113l-1.825 2.739c-0.467 0.7-1.413 0.889-2.113 0.423s-0.889-1.413-0.423-2.113zM16.019 13.252c0.7 0.468 1.648 0.277 2.116-0.423l1.844-2.765c0.469-0.701 0.279-1.649-0.423-2.117-0.7-0.468-1.648-0.277-2.116 0.424l-1.844 2.765c-0.469 0.701-0.28 1.649 0.423 2.116zM25.361 18.517l-1.616 2.423c-0.429 0.644-0.255 1.515 0.389 1.944s1.515 0.255 1.944-0.389l1.615-2.423c0.431-0.644 0.256-1.515-0.388-1.944s-1.515-0.256-1.944 0.389zM21.267 17.397c-0.467 0.697-0.277 1.641 0.42 2.107 0.699 0.465 1.641 0.277 2.107-0.421l1.749-2.624c0.467-0.699 0.277-1.641-0.421-2.107-0.697-0.465-1.64-0.277-2.105 0.421l-1.749 2.624zM28.82 32c-0.812 0-1.627-0.309-2.248-0.931l-9.363-9.525c1.451-1.604 0.747-4.372-1.576-4.784l-4.099-0.728-1.411-1.411c-0.801-0.8-1.903-1.221-3.031-1.161-1.843 0.099-3.716-0.556-5.123-1.963-1.315-1.316-1.971-3.039-1.971-4.763 0-0.747 0.123-1.493 0.369-2.207l4.285 4.285c1.671 0.099 4.256-2.487 4.157-4.159l-4.284-4.285c0.713-0.247 1.459-0.369 2.205-0.369 1.724 0 3.448 0.657 4.763 1.972 1.407 1.407 2.060 3.28 1.963 5.123-0.060 1.128 0.361 2.232 1.161 3.031l0.036 0.036c-1.657 2.777 0.577 4.68 2.408 4.609-0.329 1.575 1.356 3.215 2.803 3.215-0.359 1.387 0.715 2.833 2.385 3.161-0.673 2.429 3.011 5.023 5.143 1.753l3.675 3.673c0.621 0.621 0.931 1.435 0.931 2.248 0 1.755-1.421 3.179-3.18 3.179zM30 28.667c0-0.736-0.597-1.333-1.335-1.333-0.736 0-1.333 0.597-1.333 1.333s0.597 1.333 1.333 1.333c0.737 0 1.335-0.597 1.335-1.333zM17.159 23.415c-0.889-0.917-2.268-0.985-4.779-1.152-0.381-0.025-0.616 0.22-0.647 0.591l-0.611 5.611s3.725 2.517 5.253 3.536c1.419-2.561 3.599-2.716 5.228-4.003l-4.445-4.583zM14.996 21.159c1.943 0 2.237-2.752 0.404-3.077-6.895-1.225-6.532-1.185-6.759-1.185-0.847 0-1.581 0.604-1.745 1.437l-0.595 5.261c-0.081 0.841 0.193 1.568 0.844 2.043 0.649 0.472 2.701 1.932 2.701 1.932s0.437-3.78 0.56-4.868c0.124-1.087 0.735-1.837 1.899-1.78 0.123 0.005 2.479 0.237 2.691 0.237z"></path>
</symbol>
<symbol id="ic-heart" viewBox="0 0 20 20">
<title>heart</title>
<path d="M17.19 4.156c-1.672-1.535-4.383-1.535-6.055 0l-1.135 1.041-1.136-1.041c-1.672-1.535-4.382-1.535-6.054 0-1.881 1.726-1.881 4.519 0 6.245l7.19 6.599 7.19-6.599c1.88-1.726 1.88-4.52 0-6.245zM16.124 9.375l-6.124 5.715-6.125-5.715c-0.617-0.567-0.856-1.307-0.856-2.094s0.138-1.433 0.756-1.999c0.545-0.501 1.278-0.777 2.063-0.777s1.517 0.476 2.062 0.978l2.1 1.825 2.099-1.826c0.546-0.502 1.278-0.978 2.063-0.978s1.518 0.276 2.063 0.777c0.618 0.566 0.755 1.212 0.755 1.999s-0.238 1.528-0.856 2.095z"></path>
</symbol>
</defs>
</svg>
