<svg aria-hidden="true" style="position: absolute; width: 0; height: 0; overflow: hidden;" version="1.1" xmlns="http://www.w3.org/2000/svg" xmlns:xlink="http://www.w3.org/1999/xlink">
<defs>
<symbol id="ic-guide" viewBox="0 0 32 32">
<title>guide</title>
<path d="M5.131 25.333h-1.131c-1.061 0-2.079-0.421-2.828-1.172-0.751-0.749-1.172-1.767-1.172-2.828v-4c0-9.567 7.169-17.333 16-17.333s16 7.767 16 17.333v4c0 1.061-0.421 2.079-1.172 2.828-0.749 0.751-1.767 1.172-2.828 1.172h-1.131c-3.587 6.177-9.205 6.667-10.869 6.667s-7.283-0.489-10.869-6.667zM26.667 17.499c-0.801 0.315-1.692-0.24-1.692-1.063 0-0.405-0.029-0.813-0.071-1.22-2.348-0.339-4.824-2.568-4.932-4.964-1.753 2.673-6.033 5.56-9.392 5.56 1.448-0.932 2.452-3.697 2.537-4.677-0.775 1.456-3.864 4.181-6.068 4.649l-0.024 0.652c0 0.825-0.892 1.376-1.692 1.063v5.028c0.383 0.341 0.843 0.619 1.388 0.792 0.3 0.096 0.549 0.299 0.695 0.565 2.941 5.395 7.235 5.449 8.584 5.449 1.239 0 4.959-0.047 7.836-4.225-1.428 0.577-3.020 0.805-5.012 0.871-0.493 0.8-1.573 1.355-2.824 1.355-1.717 0-3.111-1.045-3.111-2.333s1.393-2.333 3.111-2.333c1.244 0 2.317 0.548 2.816 1.34 2.533-0.035 5.781-0.445 7.851-3.527v-2.981zM12 16.667c0.915 0 1.657 0.896 1.657 2s-0.743 2-1.657 2-1.657-0.896-1.657-2 0.743-2 1.657-2zM20 16.667c0.915 0 1.657 0.896 1.657 2s-0.743 2-1.657 2-1.657-0.896-1.657-2 0.743-2 1.657-2zM27.304 14.667h1.809c-1.141-6.824-6.583-12-13.113-12s-11.972 5.176-13.113 12h1.809c0.693-5.364 4.548-10.296 11.304-10.296s10.611 4.932 11.304 10.296z"></path>
</symbol>
<symbol id="ic-globe" viewBox="0 0 32 32">
<title>globe</title>
<path d="M16.027 0c8.819 0.015 15.973 7.177 15.973 16 0 8.831-7.168 16-16 16-8.831 0-16-7.169-16-16 0-8.823 7.156-15.985 15.975-16h0.052zM20.952 21.333h-9.903c0.852 5.688 2.989 9.333 4.951 9.333 1.963 0 4.1-3.645 4.952-9.333zM29.665 21.333h-7.364c-0.568 3.98-1.761 7.203-3.313 9.028 4.892-1.013 8.895-4.467 10.677-9.028zM9.7 21.333h-7.365c1.784 4.561 5.787 8.015 10.679 9.028-1.552-1.825-2.745-5.048-3.313-9.028zM9.536 12h-7.648c-0.441 1.555-0.988 4.519 0 8h7.648c-0.251-2.419-0.287-5.233 0-8zM21.124 12h-10.247c-0.26 2.4-0.3 5.236 0 8h10.247c0.261-2.415 0.299-5.24 0-8zM30.113 12h-7.648c0.083 0.789 0.411 4.025 0 8h7.648c0.988-3.483 0.441-6.447 0-8zM13.013 1.639c-4.892 1.013-8.895 4.467-10.679 9.028h7.365c0.568-3.98 1.761-7.204 3.313-9.028zM20.952 10.667c-0.852-5.688-2.989-9.333-4.952-9.333-1.961 0-4.099 3.645-4.951 9.333h9.903zM18.988 1.639c1.552 1.824 2.745 5.048 3.313 9.028h7.364c-1.783-4.561-5.785-8.015-10.677-9.028z"></path>
</symbol>
<symbol id="ic-heart" viewBox="0 0 32 32">
<title>heart</title>
<path d="M16 28.791c-7.507-7.385-14.667-13.729-14.667-19.203 0-5.055 4.091-6.921 7.041-6.921 1.749 0 5.535 0.668 7.625 5.943 2.12-5.291 5.952-5.929 7.635-5.929 3.387 0 7.032 2.161 7.032 6.908 0 5.425-6.848 11.5-14.667 19.203zM23.635 1.347c-2.937 0-5.928 1.389-7.635 4.317-1.713-2.941-4.696-4.331-7.625-4.331-4.244 0-8.375 2.916-8.375 8.255 0 6.215 7.428 12.572 16 21.079 8.573-8.507 16-14.864 16-21.079 0-5.348-4.127-8.241-8.365-8.241z"></path>
</symbol>
<symbol id="ic-calendar" viewBox="0 0 32 32">
<title>calendar</title>
<path d="M26.667 26.667h-5.333v-5.333h5.333v5.333zM18.667 13.333h-5.333v5.333h5.333v-5.333zM26.667 13.333h-5.333v5.333h5.333v-5.333zM10.667 21.333h-5.333v5.333h5.333v-5.333zM18.667 21.333h-5.333v5.333h5.333v-5.333zM10.667 13.333h-5.333v5.333h5.333v-5.333zM32 2.667v29.333h-32v-29.333h4v1.333c0 1.471 1.196 2.667 2.667 2.667s2.667-1.196 2.667-2.667v-1.333h13.333v1.333c0 1.471 1.196 2.667 2.667 2.667s2.667-1.196 2.667-2.667v-1.333h4zM29.333 10.667h-26.667v18.667h26.667v-18.667zM26.667 1.333c0-0.736-0.596-1.333-1.333-1.333s-1.333 0.597-1.333 1.333v2.667c0 0.736 0.596 1.333 1.333 1.333s1.333-0.597 1.333-1.333v-2.667zM8 4c0 0.736-0.596 1.333-1.333 1.333s-1.333-0.597-1.333-1.333v-2.667c0-0.736 0.596-1.333 1.333-1.333s1.333 0.597 1.333 1.333v2.667z"></path>
</symbol>
<symbol id="ic-email-1" viewBox="0 0 32 32">
<title>email-1</title>
<path d="M16 16.951l-15.98-12.951h31.96l-15.98 12.951zM16 20.383l-16-12.967v20.584h32v-20.584l-16 12.967z"></path>
</symbol>
<symbol id="ic-email-2" viewBox="0 0 32 32">
<title>email-2</title>
<path d="M16.056 31.531c-10.417 0-16.056-6.501-16.056-14.895 0-8.969 6.349-16.167 17.701-16.167 8.285 0 14.299 5.384 14.299 12.801 0 11.616-13.773 14.683-13.083 8.056-0.947 1.477-2.472 3.139-5.404 3.139-3.355 0-5.44-2.456-5.44-6.409 0-5.925 3.895-10.932 8.505-10.932 2.212 0 3.733 1.168 4.369 2.961l0.619-2.176h3.117c-0.325 1.109-3.095 11.369-3.095 11.369-0.864 3.555 1.8 3.617 4.163 1.729 4.439-3.44 4.668-12.436-1.331-16.188-6.428-3.855-21.060-1.469-21.060 11.591 0 7.481 5.267 12.508 13.105 12.508 4.581 0 7.389-1.24 9.727-2.597l1.569 2.264c-2.281 1.288-5.948 2.945-11.707 2.945zM12.931 12.457c-0.953 1.787-1.569 4.101-1.569 5.899 0 4.813 4.696 4.844 7.003 0.319 0.949-1.859 1.561-4.228 1.561-6.039 0-3.889-4.66-4.579-6.995-0.179z"></path>
</symbol>
<symbol id="ic-flag" viewBox="0 0 32 32">
<title>flag</title>
<path d="M5.333 32h-2.667v-32h2.667v32zM29.333 3.484s-2.161 1.907-5.005 1.907c-4.48 0-4.581-3.86-9.783-3.86-2.811 0-5.433 1.307-6.545 2.259v16.113c1.579-1.092 3.972-2.241 6.564-2.241 4.912 0 5.601 3.672 9.979 3.672 2.829 0 4.791-1.812 4.791-1.812v-16.037z"></path>
</symbol>
<symbol id="ic-lock" viewBox="0 0 32 32">
<title>lock</title>
<path d="M24 13.333v-5.333c0-4.417-3.583-8-8-8s-8 3.583-8 8v5.333h-4v18.667h24v-18.667h-4zM10.667 13.333v-5.333c0-2.941 2.392-5.333 5.333-5.333s5.333 2.392 5.333 5.333v5.333h-10.667z"></path>
</symbol>
<symbol id="ic-magnifier" viewBox="0 0 32 32">
<title>magnifier</title>
<path d="M30.815 26.744l-6.636-6.636c1.287-2.027 2.031-4.429 2.031-7.001 0-7.227-5.879-13.107-13.105-13.107s-13.104 5.88-13.104 13.107 5.877 13.107 13.105 13.107c2.445 0 4.736-0.673 6.696-1.844l6.695 6.695c2.859 2.855 7.179-1.461 4.319-4.32zM4.063 13.107c0-4.985 4.057-9.043 9.043-9.043s9.043 4.056 9.043 9.043-4.057 9.043-9.043 9.043-9.043-4.057-9.043-9.043zM6.743 10.755c2.645-6.132 11.552-5.421 13.229 0.999-3.379-3.965-9.324-4.392-13.229-0.999z"></path>
</symbol>
<symbol id="ic-map" viewBox="0 0 32 32">
<title>map</title>
<path d="M16 0c-4.197 0-8 3.404-8 7.603 0 6.243 6.377 6.903 8 16.397 1.623-9.495 8-10.155 8-16.397 0-4.199-3.801-7.603-8-7.603zM16 10.667c-1.473 0-2.667-1.193-2.667-2.667s1.193-2.667 2.667-2.667 2.667 1.193 2.667 2.667-1.193 2.667-2.667 2.667zM32 32l-8.943-3.236-7.057 3.236-7.441-3.236-8.559 3.236 5.333-12 5.28-2.112c0.507 0.688 0.988 1.44 1.415 2.305l-4.697 1.88-2.3 5.173 3.563-1.347 2.008-3.583-0.847 4.059 5.585 2.385 0.66-2.695 0.62 2.699 5.533-2.52-0.824-4.044 2.096 3.861 3.643 1.319-2.319-5.304-4.775-1.887c0.425-0.867 0.908-1.62 1.416-2.308l5.361 2.117 5.248 12z"></path>
</symbol>
<symbol id="ic-menu" viewBox="0 0 32 32">
<title>menu</title>
<path d="M5.333 29.333h-5.333v-5.333h5.333v5.333zM5.333 13.333h-5.333v5.333h5.333v-5.333zM5.333 2.667h-5.333v5.333h5.333v-5.333zM9.333 2.667v5.333h22.667v-5.333h-22.667zM9.333 18.667h22.667v-5.333h-22.667v5.333zM9.333 29.333h22.667v-5.333h-22.667v5.333z"></path>
</symbol>
<symbol id="ic-phone" viewBox="0 0 32 32">
<title>phone</title>
<path d="M24.64 30.568l-1.591 0.877c-9.305 4.828-25.443-23.325-16.372-28.645l1.527-0.849 4.952 8.623-1.519 0.843c-2.756 1.66 3.68 12.943 6.505 11.393l1.549-0.856 4.948 8.615zM11.563 0l-2.24 1.3 4.952 8.621 2.241-1.3-4.953-8.621zM23.047 19.996l-2.24 1.3 4.952 8.623 2.241-1.3-4.953-8.623z"></path>
</symbol>
<symbol id="ic-user" viewBox="0 0 32 32">
<title>user</title>
<path d="M16 2.667c3.676 0 6.667 2.991 6.667 6.668 0 3.675-2.991 6.667-6.667 6.667s-6.667-2.992-6.667-6.667c0-3.677 2.991-6.668 6.667-6.668zM16 0c-5.155 0-9.333 4.179-9.333 9.335 0 5.153 4.179 9.333 9.333 9.333s9.333-4.18 9.333-9.333c0-5.156-4.179-9.335-9.333-9.335zM24.492 17.804c-0.663 0.664-1.409 1.241-2.211 1.736 3.829 2.499 5.837 6.777 6.629 9.795h-25.849c0.763-3.053 2.744-7.337 6.631-9.811-0.804-0.499-1.549-1.081-2.211-1.749-5.677 4.096-7.481 11.341-7.481 14.225h32c0-2.856-1.92-10.076-7.508-14.196z"></path>
</symbol>
<symbol id="ic-wrench" viewBox="0 0 32 32">
<title>wrench</title>
<path d="M18.527 14.164l1.827-2.739c0.467-0.7 1.413-0.889 2.113-0.423 0.699 0.467 0.889 1.413 0.421 2.113l-1.825 2.739c-0.467 0.7-1.413 0.889-2.113 0.423s-0.889-1.413-0.423-2.113zM16.019 13.252c0.7 0.468 1.648 0.277 2.116-0.423l1.844-2.765c0.469-0.701 0.279-1.649-0.423-2.117-0.7-0.468-1.648-0.277-2.116 0.424l-1.844 2.765c-0.469 0.701-0.28 1.649 0.423 2.116zM25.361 18.517l-1.616 2.423c-0.429 0.644-0.255 1.515 0.389 1.944s1.515 0.255 1.944-0.389l1.615-2.423c0.431-0.644 0.256-1.515-0.388-1.944s-1.515-0.256-1.944 0.389zM21.267 17.397c-0.467 0.697-0.277 1.641 0.42 2.107 0.699 0.465 1.641 0.277 2.107-0.421l1.749-2.624c0.467-0.699 0.277-1.641-0.421-2.107-0.697-0.465-1.64-0.277-2.105 0.421l-1.749 2.624zM28.82 32c-0.812 0-1.627-0.309-2.248-0.931l-9.363-9.525c1.451-1.604 0.747-4.372-1.576-4.784l-4.099-0.728-1.411-1.411c-0.801-0.8-1.903-1.221-3.031-1.161-1.843 0.099-3.716-0.556-5.123-1.963-1.315-1.316-1.971-3.039-1.971-4.763 0-0.747 0.123-1.493 0.369-2.207l4.285 4.285c1.671 0.099 4.256-2.487 4.157-4.159l-4.284-4.285c0.713-0.247 1.459-0.369 2.205-0.369 1.724 0 3.448 0.657 4.763 1.972 1.407 1.407 2.060 3.28 1.963 5.123-0.060 1.128 0.361 2.232 1.161 3.031l0.036 0.036c-1.657 2.777 0.577 4.68 2.408 4.609-0.329 1.575 1.356 3.215 2.803 3.215-0.359 1.387 0.715 2.833 2.385 3.161-0.673 2.429 3.011 5.023 5.143 1.753l3.675 3.673c0.621 0.621 0.931 1.435 0.931 2.248 0 1.755-1.421 3.179-3.18 3.179zM30 28.667c0-0.736-0.597-1.333-1.335-1.333-0.736 0-1.333 0.597-1.333 1.333s0.597 1.333 1.333 1.333c0.737 0 1.335-0.597 1.335-1.333zM17.159 23.415c-0.889-0.917-2.268-0.985-4.779-1.152-0.381-0.025-0.616 0.22-0.647 0.591l-0.611 5.611s3.725 2.517 5.253 3.536c1.419-2.561 3.599-2.716 5.228-4.003l-4.445-4.583zM14.996 21.159c1.943 0 2.237-2.752 0.404-3.077-6.895-1.225-6.532-1.185-6.759-1.185-0.847 0-1.581 0.604-1.745 1.437l-0.595 5.261c-0.081 0.841 0.193 1.568 0.844 2.043 0.649 0.472 2.701 1.932 2.701 1.932s0.437-3.78 0.56-4.868c0.124-1.087 0.735-1.837 1.899-1.78 0.123 0.005 2.479 0.237 2.691 0.237z"></path>
</symbol>
<symbol id="ic-star" viewBox="0 0 20 20">
<title>star</title>
<path d="M10 1.3l2.388 6.722h6.412l-5.232 3.948 1.871 6.928-5.439-4.154-5.438 4.154 1.87-6.928-5.233-3.948h6.412l2.389-6.722z"></path>
</symbol>
</defs>
</svg>
