<svg version="1" xmlns="http://www.w3.org/2000/svg" width="288" height="288" viewBox="0 0 216.000000 216.000000"><path d="M2.1 57.3C3.2 60.2 9.6 75.8 16.2 92c6.6 16.2 15.6 38.8 20.1 50.1l8.2 20.5h63.6c43 0 63.6-.4 63.6-1.1 0-.5 5.7-14.9 12.6-32 6.9-17.1 16.6-41.1 21.6-53.4 5-12.4 8.9-22.6 8.7-22.9-.3-.2-2.9 1.2-5.8 3.1C205.9 58.2 190.7 68 175 78c-29.6 18.9-35.7 22.8-37.6 24.2-.8.6-5.7-7.1-14.9-23.2-7.6-13.2-14.1-24.2-14.4-24.5-.4-.2-5.4 7.8-11.1 17.8-5.7 10-12 21-14 24.4l-3.6 6.2-12.9-8.4c-7.2-4.5-19.3-12.3-27-17.2-7.7-4.9-19.7-12.6-26.7-17.1L.1 52.1l2 5.2zm118 29.7c6.1 10.7 10.8 19.5 10.3 19.7-.5.2-5.8 3.5-11.7 7.4l-10.8 7-11.5-7.3c-6.3-4-11.3-7.8-11.2-8.3.8-2.9 22.4-39.3 23-38.7.4.4 5.7 9.5 11.9 20.2zm-75.4.8c20.4 13.2 30.7 20.4 30.5 21.4-.2 1.2-10 18.7-23.9 42.7l-2.5 4.4-4.3-10.4c-6-14.8-29.5-73-30.6-75.7-.5-1.2-.7-2.2-.5-2.2.3 0 14.3 8.9 31.3 19.8zm142.8 17.8c-8 19.7-15.8 38.9-17.3 42.6-1.5 3.7-3.1 6.7-3.5 6.5-.4-.1-6.8-10.6-14.1-23.4l-13.4-23.1 22.4-14.4c12.3-7.8 26.4-16.9 31.2-20 4.8-3.1 8.8-5.3 9-4.9.1.4-6.3 16.9-14.3 36.7zm-95.2 12.8l9.9 6.3-15.4 9.8c-8.4 5.4-18.2 11.7-21.8 14-3.6 2.4-6.6 4.2-6.7 4.1-.5-.4 22.9-40.6 23.5-40.6.4 0 5.1 2.9 10.5 6.4zm51.2 9.3c5 8.6 10.3 17.9 11.9 20.7 2.8 4.9 2.8 5 .5 3.5-1.3-.9-10.7-6.9-20.9-13.4-10.2-6.4-19.1-12.3-19.8-12.9-1-1 .6-2.5 8-7.3 5.1-3.4 9.8-6.2 10.3-6.2.6 0 5.1 7 10 15.6zm-14.8 13.9c10.9 7 20.3 13.2 21 13.8.9.8-10 1.1-41.7 1.1-34.5.1-42.8-.2-41.8-1.2 2.2-2.2 40.2-26.2 41.5-26.3.7 0 10.2 5.7 21 12.6z"/></svg>