<svg xmlns="http://www.w3.org/2000/svg" viewBox="0 0 1920.5 531.03"><defs><style>.cls-1{fill:none;}.cls-2{fill:#999;}.cls-3{fill:#d7fff1;}</style></defs><title>Layer 1</title><g id="Layer_2" data-name="Layer 2"><g id="Layer_1-2" data-name="Layer 1"><path class="cls-1" d="M8.21,387.34l2.3.86Z"/><path class="cls-1" d="M15.41,390l3.87,1.41C17.93,390.92,16.63,390.46,15.41,390Z"/><path class="cls-1" d="M22.48,392.54l-3.19-1.13Z"/><path class="cls-1" d="M981.11,397.46c-458.57,140.81-838.94,35.68-949-1.59C142.17,433.07,522.47,538,981.11,397.46Z"/><path class="cls-1" d="M1888.58,445.54c-50.45-25.43-160-77.68-317.46-102.81C1727.76,367.2,1838.12,418.25,1888.58,445.54Z"/><path class="cls-1" d="M1919.47,460.05a1.48,1.48,0,0,1-.36,0L1915.5,0Z"/><path class="cls-2" d="M1919.5,508.86s-379.9-263-916.76-83.15C478.21,601.44,43,435.77,3,419.7l-3-1.22V384.13s1.88.78,5.55,2.19l1.61.62,1.05.4,2.3.86h0l1.91.7,2.06.76h0l.91.32,3.87,1.41s0,0,0,0l3.19,1.13c.59.2,1.2.41,1.81.64q3.66,1.27,7.84,2.69c110,37.2,490.34,142.16,949,1.59l8.24-2.55q4.18-1.31,8.39-2.65c2.35-.75,4.69-1.48,7-2.21l6.76-2.1c220.32-67.7,410.64-68.46,559.31-45.27l.28.05c156.64,24.47,267,75.52,317.46,102.81l.06,0c18.12,9.81,28.5,16.54,30.5,17.86Z"/><path class="cls-1" d="M1919.5,463.67l-.36-.24,0-3.39L1915.5,0l4,460.05Z"/><polyline class="cls-1" points="1919.5 460.05 1919.5 463.67 1919.5 508.86 1919.5 515.89 1919.5 530.94"/><path class="cls-1" d="M441.69,526.56C241.87,514.21,96.44,471.87,24.23,449.82l-.06,0c-8.83-2.69-16.56-5.09-23.17-7.08V420.61"/><line class="cls-1" x1="1920.5" y1="329.45" x2="1919.5" y2="28.92"/><path class="cls-3" d="M1919.62,531s-379.91-263-916.77-83.15c-524.53,175.73-959.74,10.06-999.74-6l-3-1.23V406.3s1.87.78,5.54,2.19l1.61.62,1.05.4,2.3.86h0l1.91.7,2.06.76a0,0,0,0,1,0,0l.91.33,3.88,1.4h0l3.19,1.13c.59.21,1.2.41,1.81.64q3.66,1.27,7.84,2.69c110,37.21,490.34,142.17,949,1.59l8.24-2.54,8.39-2.65,7-2.22,6.76-2.09C1232,342.42,1422.29,341.66,1571,364.85l.28,0c156.64,24.47,267,75.52,317.45,102.81l.06,0c18.13,9.8,28.51,16.54,30.51,17.86Z"/></g></g></svg>